<svg version="1.1" id="Layer_1" xmlns="http://www.w3.org/2000/svg" xmlns:xlink="http://www.w3.org/1999/xlink" x="0px" y="0px"
	 width="100%" viewBox="0 0 512 512" enable-background="new 0 0 512 512" xml:space="preserve">
<path fill="#FFCC4D" opacity="1.000000" stroke="none" 
	d="
M224.000000,1.000000 
	C245.687561,1.000000 267.375122,1.000000 289.196686,1.335792 
	C290.165955,2.111672 290.954620,2.767149 291.843506,2.959615 
	C305.741333,5.968824 319.830261,8.268608 333.521240,12.022572 
	C358.658234,18.914942 382.021576,29.942650 402.951172,45.591305 
	C415.097290,54.672733 427.043579,64.095078 438.389404,74.143570 
	C444.457520,79.517860 449.030731,86.571457 454.332458,92.821472 
	C465.488770,105.973244 475.609558,119.834419 483.622101,135.160172 
	C497.924133,162.516098 507.523926,191.348251 511.080994,222.104004 
	C511.161560,222.800659 512.335876,223.370819 513.000000,224.000000 
	C513.000000,245.687561 513.000000,267.375122 512.663574,289.196747 
	C511.887482,290.166656 511.232941,290.955994 511.040344,291.845337 
	C508.029938,305.744263 505.753204,319.842529 501.968414,333.524475 
	C495.018738,358.647400 484.079987,382.058014 468.392059,403.000946 
	C459.798828,414.472626 451.704315,426.631042 441.459198,436.475769 
	C427.488953,449.900085 412.529449,462.693604 396.409271,473.363190 
	C381.971985,482.918976 365.787506,490.224091 349.647034,496.714844 
	C331.203552,504.131683 311.900299,509.306183 291.894653,511.084351 
	C291.211761,511.145081 290.629272,512.335938 290.000000,513.000000 
	C268.312439,513.000000 246.624878,513.000000 224.803253,512.663574 
	C224.164902,511.908356 223.714813,511.226013 223.148407,511.109619 
	C209.817505,508.370361 196.366882,506.130798 183.157562,502.902100 
	C162.276413,497.798218 142.979401,488.536896 124.528923,477.796844 
	C114.982605,472.239929 106.369164,465.007172 97.632324,458.151672 
	C87.095215,449.883575 76.110237,442.150360 67.726952,431.353455 
	C55.648361,415.797241 41.926826,401.437775 33.093102,383.561035 
	C27.573996,372.392059 21.560768,361.369598 17.213556,349.741455 
	C10.237897,331.082611 4.699906,311.920746 2.915838,291.898468 
	C2.854869,291.214172 1.664136,290.630554 0.999997,290.000000 
	C1.000000,268.312439 1.000000,246.624878 1.336474,224.803345 
	C2.112612,223.833206 2.766966,223.043564 2.959815,222.153885 
	C5.973546,208.250473 8.181007,194.122192 12.057117,180.466660 
	C19.252073,155.118820 30.029366,131.347885 46.200233,110.247017 
	C57.828571,95.073555 68.427795,79.013695 83.611130,66.949089 
	C95.082649,57.833866 106.047852,47.823208 118.474586,40.235691 
	C133.022934,31.352764 148.504700,23.652960 164.325699,17.290249 
	C182.776993,9.869708 202.091843,4.704202 222.103851,2.915735 
	C222.787506,2.854635 223.370224,1.664098 224.000000,1.000000 
M113.725769,300.922638 
	C106.378059,304.810150 102.249069,311.065460 101.299744,319.143799 
	C100.004410,330.166382 100.944389,341.093872 104.154503,351.763763 
	C110.431252,372.626617 121.572937,390.664490 136.947144,405.910553 
	C164.431747,433.166199 197.371719,449.596710 235.913651,454.649841 
	C254.955307,457.146332 273.899872,456.193054 292.501648,452.211212 
	C319.645508,446.400848 344.054596,434.272186 365.361053,416.455994 
	C388.578552,397.041748 405.504883,373.336487 411.762939,343.171661 
	C413.936462,332.694946 414.547272,321.974792 410.359314,311.665894 
	C406.853424,303.035950 396.473541,297.196075 387.594269,299.069580 
	C357.448517,305.430359 327.148193,310.444611 296.345215,312.612030 
	C264.837738,314.829041 233.354904,314.717560 202.044250,311.381805 
	C178.090668,308.829865 154.409210,303.791016 130.546387,300.266846 
	C125.309250,299.493408 119.816658,300.449677 113.725769,300.922638 
M155.780182,249.150146 
	C160.272049,237.567108 165.575714,226.502777 175.613449,218.518478 
	C181.291367,214.002090 188.366806,212.981277 194.046219,217.351547 
	C198.935699,221.113953 203.308792,225.946838 206.753494,231.082306 
	C210.705246,236.973648 213.161987,243.844604 216.676514,250.059082 
	C220.052353,256.028290 228.270645,258.555878 233.985947,255.873611 
	C241.220047,252.478516 244.421280,244.804306 241.705795,237.465683 
	C236.917343,224.524811 230.050064,212.866028 220.941803,202.444809 
	C203.701920,182.719925 176.019272,180.417526 156.205582,197.360184 
	C144.003143,207.794495 135.914642,221.077042 130.436630,235.983643 
	C129.391220,238.828369 128.936386,242.257858 129.420929,245.219269 
	C130.381439,251.089813 134.038651,255.296616 140.022675,256.518677 
	C146.535370,257.848755 151.788055,255.449203 155.780182,249.150146 
M296.281952,251.730728 
	C297.440308,249.346436 298.723755,247.013870 299.734650,244.568604 
	C303.459442,235.558685 308.113220,227.110779 315.443909,220.537491 
	C324.722687,212.217407 334.575378,212.522934 342.330811,222.227875 
	C347.564178,228.776733 351.322998,236.510635 355.671936,243.756134 
	C357.289795,246.451538 358.381775,249.521072 360.289429,251.971725 
	C364.142944,256.922058 371.766907,258.288025 377.018219,255.385437 
	C383.421448,251.846176 386.470978,244.911407 384.211609,238.499268 
	C379.286530,224.521622 372.163666,211.862701 361.782928,201.116684 
	C347.393707,186.221100 327.877747,181.486465 310.261108,189.953598 
	C289.300385,200.028000 278.496429,218.633896 271.609558,239.775223 
	C269.540222,246.127670 273.347870,252.493515 279.357330,255.599319 
	C284.342285,258.175629 291.274414,256.778381 296.281952,251.730728 
z"/>




<path fill="#684702" opacity="1.000000" stroke="none" 
	d="
M114.083740,300.765991 
	C119.816658,300.449677 125.309250,299.493408 130.546387,300.266846 
	C154.409210,303.791016 178.090668,308.829865 202.044250,311.381805 
	C233.354904,314.717560 264.837738,314.829041 296.345215,312.612030 
	C327.148193,310.444611 357.448517,305.430359 387.594269,299.069580 
	C396.473541,297.196075 406.853424,303.035950 410.359314,311.665894 
	C414.547272,321.974792 413.936462,332.694946 411.762939,343.171661 
	C405.504883,373.336487 388.578552,397.041748 365.361053,416.455994 
	C344.054596,434.272186 319.645508,446.400848 292.501648,452.211212 
	C273.899872,456.193054 254.955307,457.146332 235.913651,454.649841 
	C197.371719,449.596710 164.431747,433.166199 136.947144,405.910553 
	C121.572937,390.664490 110.431252,372.626617 104.154503,351.763763 
	C100.944389,341.093872 100.004410,330.166382 101.299744,319.143799 
	C102.249069,311.065460 106.378059,304.810150 114.083740,300.765991 
M183.241135,338.233215 
	C165.313721,335.358612 147.386307,332.484009 129.024841,329.539795 
	C130.714493,334.387451 132.065277,339.385803 134.152924,344.054718 
	C142.413635,362.529297 137.196045,358.307434 156.634445,361.714966 
	C195.662216,368.556519 235.122910,369.586914 274.639191,368.785919 
	C306.473724,368.140656 338.185516,366.014282 369.418884,359.294678 
	C370.943390,358.966736 373.148987,358.361603 373.648987,357.257050 
	C377.772675,348.147217 381.567963,338.888763 385.539917,329.492828 
	C383.785278,329.016357 383.452515,328.805054 383.191528,328.872284 
	C354.047699,336.380280 324.333893,339.822784 294.349731,341.287018 
	C257.539673,343.084656 220.784790,342.614990 183.241135,338.233215 
M283.523834,422.018951 
	C309.698486,417.760864 332.532349,407.046143 350.861542,387.289154 
	C319.457306,390.974030 288.161346,393.376343 256.689484,393.364960 
	C225.144058,393.353516 193.753876,391.128296 162.420883,387.195465 
	C196.265137,420.772217 237.553009,428.084290 283.523834,422.018951 
z"/>
<path fill="#694701" opacity="1.000000" stroke="none" 
	d="
M155.615692,249.479065 
	C151.788055,255.449203 146.535370,257.848755 140.022675,256.518677 
	C134.038651,255.296616 130.381439,251.089813 129.420929,245.219269 
	C128.936386,242.257858 129.391220,238.828369 130.436630,235.983643 
	C135.914642,221.077042 144.003143,207.794495 156.205582,197.360184 
	C176.019272,180.417526 203.701920,182.719925 220.941803,202.444809 
	C230.050064,212.866028 236.917343,224.524811 241.705795,237.465683 
	C244.421280,244.804306 241.220047,252.478516 233.985947,255.873611 
	C228.270645,258.555878 220.052353,256.028290 216.676514,250.059082 
	C213.161987,243.844604 210.705246,236.973648 206.753494,231.082306 
	C203.308792,225.946838 198.935699,221.113953 194.046219,217.351547 
	C188.366806,212.981277 181.291367,214.002090 175.613449,218.518478 
	C165.575714,226.502777 160.272049,237.567108 155.615692,249.479065 
z"/>
<path fill="#694701" opacity="1.000000" stroke="none" 
	d="
M296.038177,252.008484 
	C291.274414,256.778381 284.342285,258.175629 279.357330,255.599319 
	C273.347870,252.493515 269.540222,246.127670 271.609558,239.775223 
	C278.496429,218.633896 289.300385,200.028000 310.261108,189.953598 
	C327.877747,181.486465 347.393707,186.221100 361.782928,201.116684 
	C372.163666,211.862701 379.286530,224.521622 384.211609,238.499268 
	C386.470978,244.911407 383.421448,251.846176 377.018219,255.385437 
	C371.766907,258.288025 364.142944,256.922058 360.289429,251.971725 
	C358.381775,249.521072 357.289795,246.451538 355.671936,243.756134 
	C351.322998,236.510635 347.564178,228.776733 342.330811,222.227875 
	C334.575378,212.522934 324.722687,212.217407 315.443909,220.537491 
	C308.113220,227.110779 303.459442,235.558685 299.734650,244.568604 
	C298.723755,247.013870 297.440308,249.346436 296.038177,252.008484 
z"/>
<path fill="#FCFCFB" opacity="1.000000" stroke="none" 
	d="
M183.686081,338.310608 
	C220.784790,342.614990 257.539673,343.084656 294.349731,341.287018 
	C324.333893,339.822784 354.047699,336.380280 383.191528,328.872284 
	C383.452515,328.805054 383.785278,329.016357 385.539917,329.492828 
	C381.567963,338.888763 377.772675,348.147217 373.648987,357.257050 
	C373.148987,358.361603 370.943390,358.966736 369.418884,359.294678 
	C338.185516,366.014282 306.473724,368.140656 274.639191,368.785919 
	C235.122910,369.586914 195.662216,368.556519 156.634445,361.714966 
	C137.196045,358.307434 142.413635,362.529297 134.152924,344.054718 
	C132.065277,339.385803 130.714493,334.387451 129.024841,329.539795 
	C147.386307,332.484009 165.313721,335.358612 183.686081,338.310608 
z"/>
<path fill="#FCFBFA" opacity="1.000000" stroke="none" 
	d="
M283.090393,422.078827 
	C237.553009,428.084290 196.265137,420.772217 162.420883,387.195465 
	C193.753876,391.128296 225.144058,393.353516 256.689484,393.364960 
	C288.161346,393.376343 319.457306,390.974030 350.861542,387.289154 
	C332.532349,407.046143 309.698486,417.760864 283.090393,422.078827 
z"/>
</svg>